<?xml version="1.0" standalone="no"?>
<!DOCTYPE svg PUBLIC "-//W3C//DTD SVG 20010904//EN"
 "http://www.w3.org/TR/2001/REC-SVG-20010904/DTD/svg10.dtd">
<svg version="1.0" xmlns="http://www.w3.org/2000/svg"
 width="220.000000pt" height="181.000000pt" viewBox="0 0 220.000000 181.000000"
 preserveAspectRatio="xMidYMid meet">

<g transform="translate(0.000000,181.000000) scale(0.100000,-0.100000)"
fill="#000000" stroke="none">
<path d="M155 1681 c-3 -5 -2 -12 3 -15 5 -3 9 1 9 9 0 17 -3 19 -12 6z"/>
<path d="M1301 1507 c-13 -21 -12 -21 5 -5 10 10 16 20 13 22 -3 3 -11 -5 -18
-17z"/>
<path d="M1936 1423 c-6 -14 -5 -15 5 -6 7 7 10 15 7 18 -3 3 -9 -2 -12 -12z"/>
<path d="M900 973 c-8 -2 -22 -7 -30 -10 -8 -4 -19 -5 -23 -4 -13 2 -171 -40
-183 -50 -6 -5 -13 -7 -16 -4 -3 3 -20 -1 -39 -9 -19 -8 -37 -15 -41 -15 -10
-2 -78 -31 -143 -62 -56 -26 -77 -43 -67 -53 3 -4 0 -4 -9 -1 -16 6 -92 -52
-84 -65 3 -4 -2 -7 -10 -6 -7 0 -13 -1 -12 -4 1 -3 -15 -22 -36 -43 -20 -22
-35 -42 -32 -47 3 -4 -2 -11 -10 -14 -8 -3 -14 -9 -13 -13 1 -4 -3 -17 -9 -29
-23 -40 -26 -119 -8 -173 10 -31 21 -49 27 -45 7 4 8 2 4 -4 -11 -18 39 -73
89 -99 41 -21 153 -28 212 -14 61 15 116 40 126 57 4 8 13 14 18 14 10 0 27
17 107 104 30 33 37 48 33 69 -1 5 3 6 8 3 12 -8 43 42 35 57 -4 7 -4 9 1 5 4
-4 13 -1 20 6 17 17 57 96 49 96 -4 0 0 8 9 18 9 10 18 27 20 38 2 10 13 39
24 64 47 99 52 114 68 200 3 13 -1 28 -8 32 -13 8 -53 9 -77 1z m-596 -736
c-3 -8 -12 -14 -21 -14 -13 0 -13 2 3 14 22 16 25 16 18 0z"/>
<path d="M1267 768 c-6 -17 35 -130 89 -247 98 -210 249 -388 386 -455 71 -35
188 -60 188 -40 0 5 15 9 34 10 77 1 176 95 192 183 9 48 -12 145 -44 205 -76
140 -356 283 -647 330 -165 27 -192 29 -198 14z"/>
</g>
</svg>
